<svg width="16" height="16" viewBox="0 0 16 16" fill="none" xmlns="http://www.w3.org/2000/svg">
<path d="M8 0C10.1254 0.00546908 12.1618 0.85433 13.6618 2.36013C15.1617 3.86593 16.0027 5.90554 16 8.03097C15.9929 10.1068 15.1791 12.0987 13.7306 13.5857C12.2822 15.0727 10.3124 15.9384 8.23742 16H7.97935C5.90343 15.9956 3.91049 15.1845 2.42155 13.7379C0.932612 12.2914 0.0642822 10.3227 0 8.24774V7.98968C0.00273541 5.86973 0.846797 3.83755 2.34679 2.33949C3.84679 0.841436 5.88005 -1.76478e-06 8 0ZM10.0129 8.77419H5.98709C6.14193 11.7677 7.19484 14.2865 7.92774 14.4516H8C8.70193 14.4516 9.77548 12.0052 9.99225 9.0529L10.0129 8.77419ZM14.4103 8.77419H11.5613C11.4684 10.7974 11.0142 12.6761 10.3432 14.0181C11.3899 13.6088 12.3117 12.9337 13.0177 12.0594C13.7237 11.185 14.1895 10.1416 14.369 9.03226L14.4103 8.77419ZM4.42839 8.77419H1.6C1.7404 9.93433 2.19278 11.0347 2.90898 11.9581C3.62517 12.8815 4.57837 13.5934 5.66709 14.0181C4.95787 12.4935 4.55121 10.8459 4.46968 9.16645L4.43871 8.77419H4.42839ZM5.66709 1.98194L5.54322 2.03355C4.48275 2.4703 3.55762 3.18143 2.86282 4.09391C2.16803 5.0064 1.72861 6.08736 1.58968 7.22581H4.42839C4.52129 5.33677 4.92387 3.57161 5.52258 2.26065L5.66709 1.98194ZM7.98967 1.54839C7.26709 1.54839 6.15226 4.13935 5.98709 7.22581H10.0129C9.85806 4.23226 8.79484 1.71355 8.06193 1.54839H7.98967ZM10.3432 1.99226L10.3742 2.04387C11.1128 3.67429 11.5165 5.43644 11.5613 7.22581H14.4C14.2566 6.06938 13.8041 4.97298 13.0902 4.05198C12.3763 3.13099 11.4274 2.41946 10.3432 1.99226Z" fill="white"/>
</svg>
