<svg width="109" height="39" viewBox="0 0 109 39" fill="none" xmlns="http://www.w3.org/2000/svg">
<path d="M8.1703 4.67329H11.6186V11.5466C11.9215 11.3369 12.2787 11.1388 12.6903 10.9524C13.102 10.766 13.5447 10.6029 14.0184 10.4631C14.4922 10.3234 14.9814 10.2146 15.4863 10.137C15.9911 10.0515 16.4959 10.0088 17.0007 10.0088C18.1657 10.0088 19.2335 10.1797 20.2043 10.5214C21.1829 10.8631 22.0217 11.3446 22.7207 11.9659C23.4196 12.5873 23.9633 13.3328 24.3516 14.2027C24.7477 15.0647 24.9457 16.02 24.9457 17.0685C24.9457 18.1635 24.7399 19.1538 24.3283 20.0391C23.9167 20.9167 23.3459 21.6701 22.6158 22.2992C21.8935 22.9205 21.0315 23.402 20.0296 23.7437C19.0355 24.0777 17.956 24.2446 16.791 24.2446C16.294 24.2446 15.8008 24.2136 15.3115 24.1514C14.83 24.0893 14.364 24.0039 13.9136 23.8952C13.4709 23.7864 13.0515 23.6583 12.6554 23.5107C12.2671 23.3554 11.9215 23.1884 11.6186 23.0098V24H8.1703V4.67329ZM11.6186 19.678C11.9681 19.9576 12.337 20.1945 12.7253 20.3886C13.1136 20.5828 13.5097 20.742 13.9136 20.8663C14.3174 20.9905 14.7251 21.0837 15.1368 21.1458C15.5484 21.2002 15.9484 21.2274 16.3367 21.2274C17.1289 21.2274 17.8317 21.1225 18.4453 20.9129C19.0666 20.6954 19.5869 20.4003 20.0063 20.0275C20.4335 19.6547 20.7596 19.2159 20.9849 18.7111C21.2101 18.2063 21.3227 17.6587 21.3227 17.0685C21.3227 16.5171 21.2101 15.9967 20.9849 15.5074C20.7674 15.0181 20.449 14.591 20.0296 14.226C19.618 13.8532 19.1171 13.5619 18.5268 13.3523C17.9443 13.1348 17.2881 13.0261 16.558 13.0261C16.092 13.0261 15.6261 13.0727 15.1601 13.1659C14.6941 13.2513 14.2436 13.3756 13.8087 13.5386C13.3816 13.7017 12.9777 13.8998 12.5972 14.1328C12.2244 14.3658 11.8982 14.6259 11.6186 14.9133V19.678ZM25.9905 10.2418H29.4271V16.952C29.4271 17.5888 29.497 18.1713 29.6368 18.6994C29.7766 19.2198 30.0135 19.6663 30.3474 20.0391C30.6892 20.4119 31.1396 20.7032 31.6988 20.9129C32.2657 21.1148 32.9686 21.2157 33.8074 21.2157C34.2035 21.2157 34.6034 21.173 35.0073 21.0876C35.4189 21.0022 35.8111 20.8857 36.1839 20.7381C36.5567 20.5828 36.9023 20.4003 37.2207 20.1906C37.5469 19.9809 37.8265 19.7518 38.0595 19.5032V10.2418H41.5078V24H38.0595V22.8234C37.2129 23.3282 36.3625 23.6893 35.5082 23.9068C34.6539 24.1243 33.8423 24.233 33.0734 24.233C31.8153 24.233 30.7358 24.0815 29.8349 23.7787C28.9417 23.4758 28.2078 23.037 27.6331 22.4623C27.0661 21.8798 26.6506 21.1691 26.3866 20.3304C26.1225 19.4838 25.9905 18.5208 25.9905 17.4413V10.2418ZM44.2883 19.7828C45.2203 20.342 46.2454 20.7536 47.3638 21.0177C48.4822 21.2818 49.6277 21.4138 50.8004 21.4138C51.5926 21.4138 52.2528 21.3594 52.7809 21.2507C53.309 21.142 53.7323 21.0022 54.0507 20.8313C54.3691 20.6604 54.5943 20.4663 54.7264 20.2488C54.8584 20.0314 54.9244 19.81 54.9244 19.5848C54.9244 19.2586 54.7807 18.979 54.4934 18.746C54.2138 18.513 53.7478 18.3965 53.0954 18.3965C52.7925 18.3965 52.4663 18.416 52.1168 18.4548C51.7674 18.4936 51.3984 18.5363 51.0101 18.5829C50.6296 18.6218 50.2296 18.6606 49.8102 18.6994C49.3986 18.7383 48.9792 18.7577 48.5521 18.7577C47.6201 18.7577 46.824 18.6567 46.1639 18.4548C45.5115 18.2529 44.9795 17.9771 44.5679 17.6277C44.1563 17.2782 43.8573 16.8666 43.6709 16.3928C43.4845 15.9113 43.3913 15.3948 43.3913 14.8434C43.3913 14.1444 43.5544 13.4998 43.8806 12.9096C44.2067 12.3193 44.6727 11.8106 45.2785 11.3835C45.8843 10.9485 46.6143 10.6107 47.4686 10.37C48.3307 10.1292 49.2899 10.0088 50.3461 10.0088C50.8975 10.0088 51.4722 10.0438 52.0702 10.1137C52.676 10.1758 53.2702 10.2612 53.8526 10.37C54.4351 10.4787 54.9943 10.6068 55.5302 10.7544C56.0661 10.8942 56.5398 11.0456 56.9514 11.2087L55.868 13.8881C54.9904 13.5619 54.1128 13.3057 53.2352 13.1193C52.3654 12.9251 51.4683 12.828 50.5441 12.828C49.8995 12.828 49.352 12.8785 48.9015 12.9795C48.4589 13.0727 48.0977 13.2008 47.8181 13.3639C47.5385 13.5192 47.3327 13.7017 47.2007 13.9114C47.0764 14.1134 47.0143 14.3269 47.0143 14.5522C47.0143 14.7153 47.0454 14.8628 47.1075 14.9948C47.1774 15.1269 47.2861 15.2434 47.4337 15.3443C47.589 15.4375 47.7871 15.5113 48.0278 15.5657C48.2763 15.6123 48.5792 15.6356 48.9365 15.6356C49.2627 15.6356 49.6083 15.6162 49.9733 15.5773C50.3383 15.5385 50.7189 15.4997 51.115 15.4608C51.5111 15.4142 51.9188 15.3715 52.3382 15.3327C52.7653 15.2939 53.2003 15.2744 53.6429 15.2744C54.4662 15.2744 55.1846 15.3715 55.7981 15.5657C56.4194 15.7598 56.932 16.0317 57.3359 16.3812C57.7397 16.7306 58.0426 17.1423 58.2445 17.616C58.4465 18.0898 58.5474 18.6062 58.5474 19.1654C58.5474 19.8877 58.3804 20.5595 58.0465 21.1808C57.7125 21.8021 57.2155 22.3419 56.5553 22.8001C55.8952 23.2505 55.072 23.6039 54.0856 23.8602C53.1071 24.1165 51.9732 24.2446 50.6839 24.2446C49.8918 24.2446 49.1268 24.1942 48.389 24.0932C47.6512 24 46.9483 23.8719 46.2804 23.7088C45.6125 23.5379 44.9834 23.3399 44.3931 23.1146C43.8107 22.8894 43.2787 22.6486 42.7971 22.3924L44.2883 19.7828ZM58.6835 17.1617C58.6835 16.152 58.866 15.2123 59.231 14.3425C59.6038 13.4649 60.1436 12.7076 60.8503 12.0708C61.5648 11.4262 62.4347 10.9214 63.4598 10.5563C64.4928 10.1913 65.6694 10.0088 66.9897 10.0088C67.5644 10.0088 68.143 10.0438 68.7255 10.1137C69.3079 10.1836 69.8671 10.2845 70.403 10.4165C70.9467 10.5408 71.4554 10.6923 71.9291 10.8709C72.4029 11.0417 72.8145 11.232 73.164 11.4417L71.568 14.0396C70.8146 13.6901 70.1001 13.4338 69.4244 13.2707C68.7565 13.1076 68.077 13.0261 67.3858 13.0261C66.5936 13.0261 65.883 13.1309 65.2539 13.3406C64.6248 13.5425 64.0889 13.8299 63.6462 14.2027C63.2113 14.5677 62.8774 15.0026 62.6444 15.5074C62.4191 16.0045 62.3065 16.5481 62.3065 17.1384C62.3065 17.7286 62.4269 18.2762 62.6677 18.781C62.9162 19.278 63.2618 19.7091 63.7045 20.0741C64.1549 20.4313 64.6947 20.7148 65.3238 20.9245C65.9606 21.1264 66.6674 21.2274 67.444 21.2274C68.2983 21.2274 69.1021 21.107 69.8555 20.8663C70.6166 20.6255 71.3233 20.3032 71.9757 19.8993L73.5717 22.4972C73.1601 22.7457 72.7135 22.9787 72.232 23.1962C71.7505 23.4059 71.234 23.5884 70.6826 23.7437C70.1389 23.899 69.5642 24.0194 68.9585 24.1048C68.3604 24.198 67.7391 24.2446 67.0945 24.2446C65.782 24.2446 64.6054 24.066 63.5647 23.7088C62.524 23.3515 61.6425 22.8583 60.9202 22.2293C60.1979 21.5924 59.6426 20.843 59.2543 19.9809C58.8738 19.1188 58.6835 18.1791 58.6835 17.1617ZM74.4883 19.6663C74.4883 19.0062 74.632 18.4043 74.9193 17.8607C75.2067 17.317 75.6377 16.851 76.2124 16.4627C76.7872 16.0666 77.5017 15.7637 78.356 15.554C79.218 15.3366 80.2199 15.2278 81.3616 15.2278C82.2081 15.2278 83.0974 15.29 84.0293 15.4142C84.9691 15.5385 85.936 15.7288 86.9301 15.9851C86.8913 15.5501 86.7592 15.1502 86.534 14.7852C86.3088 14.4124 85.9942 14.0939 85.5904 13.8299C85.1943 13.5581 84.7128 13.3484 84.1458 13.2008C83.5866 13.0532 82.9498 12.9795 82.2353 12.9795C81.847 12.9795 81.4198 13.0028 80.9538 13.0494C80.4878 13.096 80.0063 13.1659 79.5093 13.2591C79.0122 13.3523 78.5191 13.4687 78.0298 13.6085C77.5483 13.7483 77.0978 13.9153 76.6784 14.1095L75.63 11.2786C76.1503 11.0922 76.7056 10.9214 77.2959 10.766C77.8939 10.6107 78.5035 10.4787 79.1248 10.37C79.7462 10.2535 80.3675 10.1641 80.9888 10.102C81.6101 10.0399 82.212 10.0088 82.7945 10.0088C85.3652 10.0088 87.2757 10.6651 88.5261 11.9776C89.7765 13.2901 90.4017 15.3016 90.4017 18.0121V24H86.9534V22.7069C86.5961 22.9166 86.2039 23.1146 85.7768 23.301C85.3574 23.4874 84.8992 23.6505 84.4021 23.7903C83.9051 23.9301 83.3692 24.0388 82.7945 24.1165C82.2275 24.2019 81.6256 24.2446 80.9888 24.2446C79.917 24.2446 78.9734 24.1281 78.1579 23.8952C77.3502 23.6622 76.6745 23.3399 76.1309 22.9282C75.5872 22.5166 75.1756 22.0351 74.896 21.4837C74.6242 20.9245 74.4883 20.3187 74.4883 19.6663ZM78.123 19.5498C78.123 19.7751 78.1812 19.9925 78.2977 20.2022C78.4142 20.4042 78.6006 20.5867 78.8569 20.7498C79.1132 20.9051 79.4394 21.0332 79.8355 21.1342C80.2393 21.2274 80.7247 21.274 81.2917 21.274C81.8975 21.274 82.4838 21.2196 83.0508 21.1109C83.6177 21.0022 84.1458 20.8585 84.6351 20.6799C85.1244 20.5012 85.5671 20.2954 85.9632 20.0624C86.3593 19.8294 86.6893 19.5887 86.9534 19.3402V18.7344C86.4253 18.5868 85.901 18.4625 85.3807 18.3616C84.8681 18.2606 84.3749 18.183 83.9012 18.1286C83.4352 18.0665 82.9925 18.0237 82.5731 18.0004C82.1615 17.9771 81.8004 17.9655 81.4897 17.9655C80.8451 17.9655 80.3092 18.0082 79.8821 18.0936C79.4549 18.1791 79.1093 18.2956 78.8453 18.4431C78.5812 18.5829 78.3948 18.7499 78.2861 18.9441C78.1773 19.1382 78.123 19.3402 78.123 19.5498ZM92.8211 10.2535H96.2693V12.2339C97.0305 11.6669 97.8343 11.1777 98.6808 10.766C99.5274 10.3544 100.37 10.0399 101.209 9.82242L102.222 12.9795C100.894 13.1115 99.7254 13.4105 98.7158 13.8765C97.7139 14.3347 96.8984 14.9832 96.2693 15.822V24H92.8211V10.2535Z" fill="white"/>
<path d="M7.9731 29.1489H9.36261V34.7814H13.347V36H7.9731V29.1489ZM13.4815 33.3963C13.4815 33.0456 13.5531 32.7111 13.6963 32.3925C13.8395 32.0711 14.0455 31.7876 14.3144 31.5422C14.5832 31.2967 14.9119 31.1009 15.3006 30.9548C15.6922 30.8087 16.1363 30.7356 16.6331 30.7356C17.127 30.7356 17.5712 30.8102 17.9657 30.9592C18.3631 31.1053 18.6991 31.3069 18.9738 31.5641C19.2514 31.8212 19.4633 32.1237 19.6094 32.4714C19.7584 32.8192 19.8329 33.1918 19.8329 33.5892C19.8329 33.6389 19.8315 33.6929 19.8286 33.7514C19.8286 33.8069 19.8256 33.858 19.8198 33.9048H14.928C14.9835 34.0597 15.0727 34.2014 15.1954 34.33C15.3211 34.4585 15.4774 34.5696 15.6644 34.6631C15.8514 34.7566 16.0677 34.8297 16.3131 34.8823C16.5586 34.9319 16.8304 34.9568 17.1284 34.9568C17.4265 34.9568 17.7231 34.9261 18.0183 34.8647C18.3134 34.8004 18.5954 34.7201 18.8642 34.6236L19.3026 35.6143C19.1331 35.6932 18.9607 35.7633 18.7853 35.8247C18.6129 35.8831 18.4317 35.9328 18.2418 35.9737C18.0548 36.0117 17.8575 36.0409 17.6501 36.0614C17.4455 36.0818 17.2293 36.092 17.0013 36.092C16.4198 36.092 15.9099 36.0219 15.4715 35.8817C15.0332 35.7414 14.6665 35.55 14.3713 35.3074C14.0762 35.0649 13.8541 34.78 13.7051 34.4527C13.556 34.1254 13.4815 33.7733 13.4815 33.3963ZM18.4566 32.8922C18.4098 32.749 18.3368 32.6161 18.2374 32.4933C18.141 32.3677 18.0197 32.2596 17.8736 32.169C17.7275 32.0755 17.558 32.0024 17.3651 31.9498C17.1723 31.8972 16.9604 31.8709 16.7296 31.8709C16.4841 31.8709 16.2605 31.8987 16.0589 31.9542C15.8573 32.0097 15.6805 32.0842 15.5285 32.1777C15.3766 32.2713 15.2495 32.3794 15.1472 32.5021C15.0478 32.6248 14.9748 32.7549 14.928 32.8922H18.4566ZM21.1071 30.122C20.9785 30.122 20.8616 30.1044 20.7564 30.0694C20.6541 30.0314 20.5665 29.9817 20.4934 29.9203C20.4204 29.8561 20.3634 29.783 20.3225 29.7012C20.2845 29.6164 20.2655 29.5273 20.2655 29.4338C20.2655 29.3374 20.2845 29.2482 20.3225 29.1664C20.3634 29.0817 20.4204 29.0086 20.4934 28.9472C20.5665 28.8859 20.6541 28.8377 20.7564 28.8026C20.8616 28.7646 20.9785 28.7456 21.1071 28.7456C21.2386 28.7456 21.3555 28.7646 21.4578 28.8026C21.563 28.8377 21.6521 28.8859 21.7251 28.9472C21.7982 29.0086 21.8537 29.0817 21.8917 29.1664C21.9326 29.2482 21.9531 29.3374 21.9531 29.4338C21.9531 29.5273 21.9326 29.6164 21.8917 29.7012C21.8537 29.783 21.7982 29.8561 21.7251 29.9203C21.6521 29.9817 21.563 30.0314 21.4578 30.0694C21.3555 30.1044 21.2386 30.122 21.1071 30.122ZM20.4584 30.8277H21.7558V36H20.4584V30.8277ZM22.6486 28.7281H23.9461V36H22.6486V28.7281ZM24.4926 33.4138C24.4926 33.0427 24.5671 32.695 24.7161 32.3706C24.8681 32.0462 25.0829 31.7628 25.3605 31.5203C25.641 31.2777 25.9785 31.0863 26.373 30.946C26.7704 30.8058 27.2161 30.7356 27.7099 30.7356C28.2038 30.7356 28.648 30.8058 29.0425 30.946C29.4399 31.0863 29.7774 31.2777 30.055 31.5203C30.3355 31.7628 30.5503 32.0462 30.6994 32.3706C30.8513 32.695 30.9273 33.0427 30.9273 33.4138C30.9273 33.785 30.8513 34.1327 30.6994 34.4571C30.5503 34.7814 30.3355 35.0649 30.055 35.3074C29.7774 35.55 29.4399 35.7414 29.0425 35.8817C28.648 36.0219 28.2038 36.092 27.7099 36.092C27.2161 36.092 26.7704 36.0219 26.373 35.8817C25.9785 35.7414 25.641 35.55 25.3605 35.3074C25.0829 35.0649 24.8681 34.7814 24.7161 34.4571C24.5671 34.1327 24.4926 33.785 24.4926 33.4138ZM25.8558 33.4138C25.8558 33.6213 25.8967 33.8186 25.9785 34.0056C26.0633 34.1897 26.1845 34.3533 26.3423 34.4965C26.5031 34.6368 26.6974 34.7493 26.9253 34.834C27.1562 34.9159 27.4177 34.9568 27.7099 34.9568C28.0022 34.9568 28.2622 34.9159 28.4902 34.834C28.721 34.7493 28.9153 34.6368 29.0731 34.4965C29.2339 34.3533 29.3551 34.1897 29.437 34.0056C29.5217 33.8186 29.5641 33.6213 29.5641 33.4138C29.5641 33.2064 29.5217 33.0091 29.437 32.8221C29.3551 32.6351 29.2339 32.4714 29.0731 32.3312C28.9153 32.188 28.721 32.0755 28.4902 31.9937C28.2622 31.9089 28.0022 31.8665 27.7099 31.8665C27.4177 31.8665 27.1562 31.9089 26.9253 31.9937C26.6974 32.0755 26.5031 32.188 26.3423 32.3312C26.1845 32.4714 26.0633 32.6351 25.9785 32.8221C25.8967 33.0091 25.8558 33.2064 25.8558 33.4138ZM25.7462 28.6974C25.904 28.5308 26.0808 28.4037 26.2766 28.316C26.4724 28.2284 26.6755 28.1845 26.8859 28.1845C27.07 28.1845 27.2322 28.2138 27.3724 28.2722C27.5127 28.3277 27.6456 28.3906 27.7713 28.4607C27.897 28.5279 28.0197 28.5907 28.1395 28.6492C28.2593 28.7047 28.3908 28.7325 28.534 28.7325C28.6217 28.7325 28.7166 28.7208 28.8189 28.6974C28.9241 28.6711 29.0279 28.636 29.1301 28.5922C29.2324 28.5484 29.3303 28.4958 29.4238 28.4344C29.5202 28.373 29.6035 28.3073 29.6737 28.2371V29.333C29.5159 29.4995 29.3391 29.6267 29.1433 29.7143C28.9475 29.802 28.7444 29.8458 28.534 29.8458C28.3499 29.8458 28.1877 29.8181 28.0475 29.7625C27.9072 29.7041 27.7742 29.6413 27.6486 29.5741C27.5229 29.5039 27.4002 29.4411 27.2804 29.3856C27.1606 29.3271 27.0291 29.2979 26.8859 29.2979C26.7982 29.2979 26.7018 29.3111 26.5966 29.3374C26.4943 29.3607 26.392 29.3943 26.2897 29.4382C26.1875 29.482 26.0881 29.5346 25.9917 29.596C25.8982 29.6573 25.8163 29.7231 25.7462 29.7932V28.6974ZM31.1845 33.3963C31.1845 33.0456 31.2561 32.7111 31.3993 32.3925C31.5425 32.0711 31.7485 31.7876 32.0173 31.5422C32.2862 31.2967 32.6149 31.1009 33.0036 30.9548C33.3952 30.8087 33.8393 30.7356 34.3361 30.7356C34.83 30.7356 35.2741 30.8102 35.6686 30.9592C36.0661 31.1053 36.4021 31.3069 36.6768 31.5641C36.9544 31.8212 37.1663 32.1237 37.3124 32.4714C37.4614 32.8192 37.5359 33.1918 37.5359 33.5892C37.5359 33.6389 37.5345 33.6929 37.5315 33.7514C37.5315 33.8069 37.5286 33.858 37.5228 33.9048H32.631C32.6865 34.0597 32.7756 34.2014 32.8984 34.33C33.024 34.4585 33.1804 34.5696 33.3674 34.6631C33.5544 34.7566 33.7707 34.8297 34.0161 34.8823C34.2616 34.9319 34.5334 34.9568 34.8314 34.9568C35.1295 34.9568 35.4261 34.9261 35.7212 34.8647C36.0164 34.8004 36.2984 34.7201 36.5672 34.6236L37.0055 35.6143C36.8361 35.6932 36.6636 35.7633 36.4883 35.8247C36.3159 35.8831 36.1347 35.9328 35.9448 35.9737C35.7578 36.0117 35.5605 36.0409 35.353 36.0614C35.1485 36.0818 34.9322 36.092 34.7043 36.092C34.1228 36.092 33.6129 36.0219 33.1745 35.8817C32.7362 35.7414 32.3695 35.55 32.0743 35.3074C31.7792 35.0649 31.5571 34.78 31.4081 34.4527C31.259 34.1254 31.1845 33.7733 31.1845 33.3963ZM36.1596 32.8922C36.1128 32.749 36.0398 32.6161 35.9404 32.4933C35.844 32.3677 35.7227 32.2596 35.5766 32.169C35.4305 32.0755 35.261 32.0024 35.0681 31.9498C34.8753 31.8972 34.6634 31.8709 34.4325 31.8709C34.1871 31.8709 33.9635 31.8987 33.7619 31.9542C33.5603 32.0097 33.3835 32.0842 33.2315 32.1777C33.0796 32.2713 32.9524 32.3794 32.8502 32.5021C32.7508 32.6248 32.6778 32.7549 32.631 32.8922H36.1596ZM38.3323 34.4132C38.683 34.6236 39.0687 34.7785 39.4895 34.8779C39.9103 34.9772 40.3413 35.0269 40.7826 35.0269C41.0806 35.0269 41.329 35.0064 41.5277 34.9655C41.7264 34.9246 41.8857 34.872 42.0055 34.8077C42.1253 34.7434 42.2101 34.6704 42.2597 34.5886C42.3094 34.5068 42.3343 34.4235 42.3343 34.3387C42.3343 34.216 42.2802 34.1108 42.1721 34.0231C42.0669 33.9355 41.8915 33.8916 41.6461 33.8916C41.5321 33.8916 41.4094 33.8989 41.2779 33.9135C41.1464 33.9282 41.0076 33.9442 40.8615 33.9618C40.7183 33.9764 40.5678 33.991 40.41 34.0056C40.2551 34.0202 40.0973 34.0275 39.9366 34.0275C39.5859 34.0275 39.2864 33.9895 39.038 33.9135C38.7925 33.8376 38.5924 33.7338 38.4375 33.6023C38.2826 33.4708 38.1701 33.316 38.1 33.1377C38.0298 32.9565 37.9948 32.7622 37.9948 32.5547C37.9948 32.2917 38.0561 32.0492 38.1789 31.8271C38.3016 31.605 38.4769 31.4136 38.7049 31.2529C38.9328 31.0892 39.2075 30.9621 39.5289 30.8715C39.8533 30.7809 40.2142 30.7356 40.6116 30.7356C40.8191 30.7356 41.0353 30.7488 41.2603 30.7751C41.4883 30.7985 41.7118 30.8306 41.931 30.8715C42.1502 30.9124 42.3606 30.9606 42.5622 31.0162C42.7638 31.0688 42.9421 31.1258 43.0969 31.1871L42.6893 32.1953C42.3591 32.0725 42.0289 31.9761 41.6987 31.906C41.3714 31.8329 41.0339 31.7964 40.6861 31.7964C40.4436 31.7964 40.2376 31.8154 40.0681 31.8534C39.9015 31.8885 39.7656 31.9367 39.6604 31.998C39.5552 32.0565 39.4778 32.1251 39.4281 32.204C39.3814 32.28 39.358 32.3604 39.358 32.4451C39.358 32.5065 39.3697 32.562 39.393 32.6117C39.4193 32.6614 39.4603 32.7052 39.5158 32.7432C39.5742 32.7783 39.6487 32.806 39.7393 32.8265C39.8328 32.844 39.9468 32.8528 40.0812 32.8528C40.204 32.8528 40.334 32.8455 40.4713 32.8309C40.6087 32.8163 40.7519 32.8016 40.9009 32.787C41.0499 32.7695 41.2034 32.7534 41.3612 32.7388C41.5219 32.7242 41.6855 32.7169 41.8521 32.7169C42.1618 32.7169 42.4321 32.7534 42.663 32.8265C42.8968 32.8995 43.0896 33.0018 43.2416 33.1333C43.3936 33.2648 43.5075 33.4197 43.5835 33.5979C43.6595 33.7762 43.6975 33.9705 43.6975 34.1809C43.6975 34.4527 43.6346 34.7055 43.509 34.9392C43.3833 35.173 43.1963 35.3761 42.9479 35.5485C42.6995 35.718 42.3898 35.851 42.0187 35.9474C41.6505 36.0438 41.2238 36.092 40.7387 36.092C40.4407 36.092 40.1528 36.0731 39.8752 36.0351C39.5976 36 39.3331 35.9518 39.0818 35.8904C38.8305 35.8261 38.5938 35.7516 38.3717 35.6669C38.1526 35.5821 37.9524 35.4915 37.7712 35.3951L38.3323 34.4132Z" fill="white"/>
</svg>
